<svg width="56" height="56" viewBox="0 0 56 56" fill="none" xmlns="http://www.w3.org/2000/svg">
<rect width="56" height="56" fill="#F2F4F8"/>
<path d="M23.5437 28.091C23.7018 28.0228 23.8718 27.9873 24.0436 27.9867C24.2155 27.9861 24.3857 28.0203 24.5443 28.0873C24.7028 28.1544 24.8465 28.2529 24.9668 28.377C25.087 28.5011 25.1815 28.6484 25.2445 28.8101C25.3075 28.9717 25.3378 29.1445 25.3336 29.3183C25.3295 29.492 25.2909 29.6631 25.2202 29.8215C25.1495 29.9799 25.0481 30.1223 24.922 30.2404C24.7959 30.3585 24.6477 30.4498 24.4861 30.509C23.6267 30.8514 22.8891 31.4474 22.3692 32.2195C21.8494 32.9916 21.5714 33.904 21.5714 34.838V37.1C21.5714 37.4448 21.7069 37.7754 21.948 38.0192C22.1891 38.263 22.5162 38.4 22.8571 38.4H33.1429C33.4838 38.4 33.8109 38.263 34.052 38.0192C34.2931 37.7754 34.4286 37.4448 34.4286 37.1V34.9589C34.4287 33.9949 34.1391 33.0537 33.5981 32.2599C33.0572 31.4661 32.2904 30.8573 31.3994 30.5142C31.2368 30.4571 31.0872 30.3677 30.9595 30.2511C30.8317 30.1345 30.7284 29.9931 30.6557 29.8354C30.5829 29.6777 30.5423 29.5068 30.5361 29.3329C30.5299 29.159 30.5582 28.9856 30.6195 28.823C30.6808 28.6604 30.7738 28.5119 30.8929 28.3863C31.012 28.2607 31.1549 28.1606 31.313 28.0918C31.4711 28.0231 31.6412 27.9871 31.8133 27.9861C31.9854 27.985 32.156 28.019 32.3149 28.0858C33.6926 28.6164 34.8784 29.5578 35.7151 30.7853C36.5518 32.0127 36.9999 33.4682 37 34.9589V37.1C37 38.1343 36.5936 39.1263 35.8703 39.8577C35.1469 40.5891 34.1658 41 33.1429 41H22.8571C21.8342 41 20.8531 40.5891 20.1297 39.8577C19.4064 39.1263 19 38.1343 19 37.1V34.838C19.0002 33.3822 19.4336 31.9602 20.244 30.7568C21.0544 29.5535 22.2041 28.6246 23.5437 28.091V28.091ZM28 15C29.364 15 30.6721 15.5479 31.6365 16.523C32.601 17.4982 33.1429 18.8209 33.1429 20.2V22.8C33.1429 24.1791 32.601 25.5018 31.6365 26.477C30.6721 27.4521 29.364 28 28 28C26.636 28 25.3279 27.4521 24.3635 26.477C23.399 25.5018 22.8571 24.1791 22.8571 22.8V20.2C22.8571 18.8209 23.399 17.4982 24.3635 16.523C25.3279 15.5479 26.636 15 28 15V15ZM28 17.6C27.318 17.6 26.664 17.8739 26.1817 18.3615C25.6995 18.8491 25.4286 19.5104 25.4286 20.2V22.8C25.4286 23.4896 25.6995 24.1509 26.1817 24.6385C26.664 25.1261 27.318 25.4 28 25.4C28.682 25.4 29.336 25.1261 29.8183 24.6385C30.3005 24.1509 30.5714 23.4896 30.5714 22.8V20.2C30.5714 19.5104 30.3005 18.8491 29.8183 18.3615C29.336 17.8739 28.682 17.6 28 17.6Z" fill="#C1C7CD"/>
</svg>
