<svg width="14" height="14" viewBox="0 0 14 14" fill="none" xmlns="http://www.w3.org/2000/svg">
<path d="M7.00039 11.102L3.37039 13.294C3.26372 13.3467 3.16472 13.368 3.07339 13.358C2.98272 13.3473 2.89439 13.316 2.80839 13.264C2.72172 13.2107 2.65639 13.1353 2.61239 13.038C2.56839 12.9407 2.56439 12.8343 2.60039 12.719L3.56639 8.60901L0.371391 5.83901C0.281391 5.76568 0.222057 5.67801 0.193391 5.57601C0.164724 5.47401 0.171057 5.37635 0.212391 5.28301C0.253724 5.18968 0.308724 5.11301 0.377391 5.05301C0.446724 4.99501 0.540058 4.95568 0.657391 4.93501L4.87339 4.56701L6.51739 0.675014C6.56272 0.565014 6.62806 0.48568 6.71339 0.437014C6.79872 0.388347 6.89439 0.364014 7.00039 0.364014C7.10639 0.364014 7.20239 0.388347 7.28839 0.437014C7.37439 0.48568 7.43939 0.565014 7.48339 0.675014L9.12739 4.56701L13.3424 4.93501C13.4604 4.95501 13.5541 4.99468 13.6234 5.05401C13.6927 5.11268 13.7481 5.18901 13.7894 5.28301C13.8301 5.37635 13.8361 5.47401 13.8074 5.57601C13.7787 5.67801 13.7194 5.76568 13.6294 5.83901L10.4344 8.60901L11.4004 12.719C11.4377 12.833 11.4341 12.939 11.3894 13.037C11.3447 13.135 11.2791 13.2103 11.1924 13.263C11.1071 13.3163 11.0187 13.348 10.9274 13.358C10.8367 13.368 10.7381 13.3467 10.6314 13.294L7.00039 11.102Z" fill="#D7E514"/>
</svg>
