<svg width="40" height="40" viewBox="0 0 40 40" fill="none" xmlns="http://www.w3.org/2000/svg">
<g clip-path="url(#clip0_152_190)">
<path d="M35.13 0H4.87C2.18 0 0 2.18 0 4.87V35.14C0 37.83 2.18 40.01 4.87 40.01H35.14C37.83 40.01 40.01 37.83 40.01 35.14V4.87C40.01 2.18 37.83 0 35.14 0H35.13ZM20.61 30.37C24.21 30.37 26.85 28.37 27.51 24.99L34.1 25.03C33.36 30.84 28.51 36.13 20.53 36.13C12.12 36.13 5.91 30.23 5.91 20C5.91 9.77 12.24 3.87 20.52 3.87C27.76 3.87 33.23 8.03 34.09 15.23H27.5C26.98 11.76 24.29 9.64 20.65 9.64C15.75 9.64 12.54 13.41 12.54 20.01C12.54 26.61 15.79 30.38 20.61 30.38V30.37Z" fill="#FF0000"/>
</g>
<defs>
<clipPath id="clip0_152_190">
<rect width="40" height="40" fill="white"/>
</clipPath>
</defs>
</svg>
