<svg width="572" height="133" viewBox="0 0 572 133" fill="none" xmlns="http://www.w3.org/2000/svg">
<path d="M555.91 0H379.935C371.048 0 363.844 7.20389 363.844 16.0903V116.069C363.844 124.955 371.048 132.159 379.935 132.159H555.91C564.796 132.159 572 124.955 572 116.069V16.0903C572 7.20389 564.796 0 555.91 0Z" fill="#FF0000"/>
<path d="M36.2787 42.1918C24.2188 42.1918 16.3221 51.4759 16.3221 67.6984C16.3221 83.9209 24.3179 93.2051 36.1795 93.2051C45.0344 93.2051 51.5434 88.2822 53.1294 79.9892L69.3524 80.0883C67.5351 94.3945 55.5744 107.412 35.9482 107.412C15.2648 107.412 0 92.9077 0 67.7315C0 42.5552 15.5622 28.0508 35.9482 28.0508C53.7572 28.0508 67.2047 38.2931 69.3524 56.0024H53.1294C51.8408 47.4781 45.2327 42.2248 36.2787 42.2248V42.1918Z" fill="#0E0E0E"/>
<path d="M72.9536 32.8084C72.9536 28.315 76.7863 24.7136 81.6103 24.7136C86.4342 24.7136 90.1348 28.348 90.1348 32.8084C90.1348 37.2687 86.302 40.804 81.6103 40.804C76.9185 40.804 72.9536 37.1696 72.9536 32.8084ZM73.7135 48.3701H89.507V106.289H73.7135V48.3701Z" fill="#0E0E0E"/>
<path d="M92.877 77.6103C92.877 59.7028 103.879 47.6433 120.829 47.6433C136.094 47.6433 148.022 57.2579 148.022 76.9826V81.476H108.439C108.439 90.2315 113.66 95.65 121.788 95.65C127.107 95.65 130.973 93.3042 132.559 89.769H147.592C145.346 100.441 135.764 107.478 121.457 107.478C103.747 107.478 92.877 95.9474 92.877 77.6103ZM133.087 71.531C133.087 64.4936 128.164 59.4715 121.127 59.4715C114.089 59.4715 108.703 64.857 108.439 71.531H133.087Z" fill="#0E0E0E"/>
<path d="M167.219 106.289H151.425V48.3702H166.459V58.5134H167.087C169.763 51.8063 175.941 47.6433 184.466 47.6433C196.526 47.6433 204.522 55.8702 204.423 69.4165V106.322H188.728V72.1918C188.728 65.0552 184.796 60.7931 178.287 60.7931C171.778 60.7931 167.186 65.1544 167.186 72.8526V106.355L167.219 106.289Z" fill="#0E0E0E"/>
<path d="M210.172 48.3702H225.205V58.5134H225.833C228.278 51.8063 234.159 47.6433 241.957 47.6433C249.754 47.6433 255.834 51.8063 257.75 58.5134H258.279C260.724 51.9054 267.233 47.6433 275.757 47.6433C286.529 47.6433 293.996 54.7799 293.996 67.368V106.322H278.202V70.4738C278.202 63.8658 274.37 60.661 269.116 60.661C263.136 60.661 259.733 64.824 259.733 70.9033V106.322H244.369V70.0442C244.369 64.2953 240.734 60.661 235.415 60.661C230.095 60.661 225.932 64.9231 225.932 71.531V106.322H210.139V48.3702H210.172Z" fill="#0E0E0E"/>
<path d="M318.446 72.2579C322.61 71.9936 330.407 71.6301 332.852 71.498V66.8063C332.753 62.0156 329.449 59.1411 323.568 59.1411C318.215 59.1411 314.812 61.5861 313.953 65.5508H298.919C299.878 55.5398 308.633 47.6433 323.997 47.6433C336.586 47.6433 348.547 53.2931 348.547 67.2689V106.322H333.612V98.3262H333.183C330.308 103.646 324.856 107.379 316.233 107.379C305.131 107.379 296.937 101.63 296.937 90.0993C296.937 77.1808 307.378 72.9187 318.48 72.2909L318.446 72.2579ZM320.693 96.476C327.83 96.476 332.951 91.6853 332.852 85.6059V81.3438C330.44 81.4429 323.733 81.8394 321.024 82.1037C315.572 82.6324 312.07 85.2095 312.07 89.6698C312.07 94.1302 315.704 96.509 320.726 96.509L320.693 96.476Z" fill="#0E0E0E"/>
<path d="M396.587 104.207H380.793V26.9934H396.157V56.4318H396.785C399.461 49.7247 405.31 45.5617 414.065 45.5617C426.125 45.5617 434.121 53.6565 434.121 67.3349V104.24H418.328V70.1102C418.328 62.9737 414.495 58.7115 407.887 58.7115C401.279 58.7115 396.587 63.0728 396.587 70.771V104.273V104.207Z" fill="white"/>
<path d="M476.876 46.2886H492.67V104.207H477.537V93.7666H476.909C474.233 100.474 468.054 104.967 459.298 104.967C447.668 104.967 439.771 96.7402 439.771 83.1939V46.2886H455.565V80.4186C455.565 87.2578 459.497 91.6191 465.708 91.6191C471.457 91.6191 476.909 87.4561 476.909 79.5596V46.2886H476.876Z" fill="white"/>
<path d="M498.749 26.9934H514.542V56.0023H514.972C517.218 51.3106 521.811 45.5617 531.492 45.5617C544.279 45.5617 555.083 55.4736 555.083 75.3305C555.083 95.1874 544.741 105.198 531.492 105.198C522.009 105.198 517.185 99.7469 514.972 94.9561H514.344V104.24H498.782V26.9934H498.749ZM526.47 92.5772C534.565 92.5772 538.86 85.4407 538.86 75.1984C538.86 64.956 534.598 58.1168 526.47 58.1168C518.342 58.1168 514.212 64.7248 514.212 75.1984C514.212 85.6719 518.705 92.5772 526.47 92.5772Z" fill="white"/>
</svg>
